<?xml version="1.0" standalone="no"?>
<!DOCTYPE svg PUBLIC "-//W3C//DTD SVG 20010904//EN"
 "http://www.w3.org/TR/2001/REC-SVG-20010904/DTD/svg10.dtd">
<svg version="1.0" xmlns="http://www.w3.org/2000/svg"
 width="512.000000pt" height="512.000000pt" viewBox="0 0 512.000000 512.000000"
 preserveAspectRatio="xMidYMid meet">
<metadata>
Created by potrace 1.14, written by Peter Selinger 2001-2017
</metadata>
<g transform="translate(0.000000,512.000000) scale(0.100000,-0.100000)"
fill="#000000" stroke="none">
<path d="M20 4450 c-20 -20 -20 -33 -20 -1638 0 -1381 2 -1621 14 -1638 13
-18 31 -19 247 -24 l234 -5 -1 -75 c-1 -41 -2 -107 -3 -146 l-1 -70 -185 0
c-174 0 -187 -2 -206 -21 -15 -15 -21 -34 -22 -69 0 -66 10 -93 40 -105 15 -5
951 -9 2459 -9 l2434 0 16 25 c25 38 22 131 -5 158 -19 19 -31 21 -151 20
l-130 0 0 148 0 149 170 0 c157 0 172 2 190 20 20 20 20 33 20 1640 0 1607 0
1620 -20 1640 -20 20 -33 20 -2540 20 -2507 0 -2520 0 -2540 -20z m4436 -3447
l-2 -148 -1837 -1 -1837 0 -1 88 c0 48 0 108 0 133 0 25 0 52 0 60 1 13 212
15 1840 15 l1838 0 -1 -147z"/>
</g>
</svg>
